<svg width="208" height="34" viewBox="0 0 208 34" fill="none" xmlns="http://www.w3.org/2000/svg">
<mask id="mask0_2005_2784" style="mask-type:luminance" maskUnits="userSpaceOnUse" x="0" y="0" width="208" height="34">
<path d="M208 0H0V34H208V0Z" fill="white"/>
</mask>
<g mask="url(#mask0_2005_2784)">
<path d="M20.7 15.5998C20.7 17.6998 20 19.7998 18.8 21.5998C17.6 23.3998 15.8 24.6998 13.8 25.3998C11.8 26.0998 9.6 26.1998 7.5 25.5998C5.4 24.9998 3.6 23.7998 2.3 22.0998V34.0998H0V15.5998C0 12.8998 1.1 10.1998 3 8.2998C4.9 6.3998 7.6 5.2998 10.3 5.2998C13 5.2998 15.7 6.3998 17.6 8.2998C19.5 10.1998 20.6 12.8998 20.6 15.5998H20.7ZM2.3 15.5998C2.3 17.1998 2.8 18.6998 3.7 20.0998C4.6 21.3998 5.8 22.3998 7.3 23.0998C8.8 23.6998 10.4 23.8998 11.9 23.5998C13.5 23.2998 14.9 22.4998 16 21.3998C17.1 20.2998 17.9 18.7998 18.2 17.2998C18.5 15.6998 18.4 14.0998 17.7 12.6998C17.1 11.1998 16.1 9.9998 14.7 9.0998C13.4 8.1998 11.8 7.6998 10.2 7.6998C9.1 7.6998 8.1 7.8998 7.1 8.2998C6.1 8.6998 5.2 9.2998 4.5 9.9998C3.8 10.6998 3.2 11.5998 2.8 12.5998C2.4 13.5998 2.2 14.5998 2.2 15.6998L2.3 15.5998Z" fill="white"/>
<path d="M24.9004 0H27.2004V17.5C27.2004 21.4 27.6004 23.5 31.5004 23.5V25.8C26.3004 25.8 24.9004 22.6 24.9004 17.4V0Z" fill="white"/>
<path d="M53.5996 15.4001V25.5001H51.3996V21.7001C49.8996 23.6001 47.7996 24.9001 45.3996 25.3001C42.9996 25.8001 40.5996 25.3001 38.4996 24.2001C36.3996 23.0001 34.7996 21.2001 33.8996 18.9001C32.9996 16.7001 32.9996 14.2001 33.8996 11.9001C34.6996 9.60007 36.2996 7.70007 38.2996 6.50007C40.3996 5.30007 42.7996 4.80007 45.1996 5.20007C47.5996 5.60007 49.6996 6.80007 51.2996 8.70007C52.8996 10.5001 53.6996 12.9001 53.6996 15.2001L53.5996 15.4001ZM35.5996 15.4001C35.5996 17.0001 36.0996 18.5001 36.8996 19.8001C37.7996 21.1001 38.9996 22.1001 40.3996 22.7001C41.7996 23.3001 43.3996 23.5001 44.9996 23.1001C46.4996 22.8001 47.8996 22.0001 48.9996 20.9001C50.0996 19.8001 50.8996 18.4001 51.1996 16.9001C51.4996 15.4001 51.2996 13.8001 50.7996 12.3001C50.1996 10.9001 49.1996 9.60007 47.8996 8.80007C46.5996 7.90007 45.0996 7.50007 43.4996 7.50007C41.8996 7.50007 39.3996 8.30007 37.8996 9.80007C36.3996 11.3001 35.5996 13.3001 35.5996 15.4001Z" fill="white"/>
<path d="M58.4996 8.2H55.5996V5.9H58.4996V0H60.7996V5.8H63.6996V8.1H60.7996V19.6C60.7996 20.5 61.1996 21.4 61.7996 22.1C62.4996 22.8 63.2996 23.1 64.2996 23.1H65.3996V25.4H64.2996C62.7996 25.4 61.2996 24.8 60.1996 23.7C59.0996 22.6 58.4996 21.1 58.4996 19.6V8.1V8.2Z" fill="white"/>
<path d="M70.2008 5.8C70.2008 4.3 70.8008 2.8 71.9008 1.7C73.0008 0.6 74.5008 0 76.0008 0H77.1008V2.3H76.0008C75.1008 2.3 74.2008 2.7 73.5008 3.3C72.8008 4 72.5008 4.8 72.5008 5.8H77.1008V8.1H72.5008V25.4H70.2008V8.2H67.3008V5.9H70.2008V5.8Z" fill="white"/>
<path d="M78.2992 15.5998C78.2992 13.5998 78.8992 11.5998 79.9992 9.8998C81.0992 8.1998 82.7992 6.8998 84.5992 6.0998C86.4992 5.2998 88.5992 5.0998 90.5992 5.4998C92.5992 5.8998 94.4992 6.8998 95.8992 8.2998C97.2992 9.6998 98.2992 11.5998 98.6992 13.5998C99.0992 15.5998 98.8992 17.6998 98.0992 19.5998C97.2992 21.4998 95.9992 23.0998 94.2992 24.1998C92.5992 25.2998 90.5992 25.8998 88.4992 25.8998C85.7992 25.8998 83.0992 24.7998 81.1992 22.8998C79.2992 20.9998 78.1992 18.2998 78.1992 15.5998H78.2992ZM96.6992 15.5998C96.6992 13.9998 96.1992 12.4998 95.2992 11.0998C94.3992 9.7998 93.1992 8.69981 91.6992 8.09981C90.1992 7.4998 88.5992 7.2998 86.9992 7.5998C85.3992 7.8998 83.9992 8.6998 82.8992 9.7998C81.7992 10.8998 80.9992 12.3998 80.6992 13.8998C80.3992 15.4998 80.4992 17.0998 81.1992 18.4998C81.7992 19.9998 82.7992 21.1998 84.1992 22.0998C85.5992 22.9998 87.0992 23.4998 88.6992 23.4998C89.7992 23.4998 90.7992 23.2998 91.7992 22.8998C92.7992 22.4998 93.6992 21.8998 94.3992 21.1998C95.0992 20.4998 95.6992 19.5998 96.0992 18.5998C96.4992 17.5998 96.6992 16.5998 96.6992 15.4998V15.5998Z" fill="white"/>
<path d="M111.4 5.7998H112.4V8.0998H111.4C110.5 8.0998 109.6 8.2998 108.7 8.5998C107.8 8.9998 107.1 9.4998 106.4 10.0998C105.7 10.6998 105.2 11.4998 104.9 12.3998C104.5 13.1998 104.4 14.1998 104.4 15.0998V25.4998H102.1V15.1998C102.1 13.9998 102.3 12.7998 102.8 11.5998C103.3 10.3998 104 9.3998 104.8 8.5998C105.7 7.6998 106.7 6.9998 107.8 6.5998C108.9 6.0998 110.2 5.8998 111.4 5.8998V5.7998Z" fill="white"/>
<path d="M135.801 25.4998V12.1998C135.801 11.6998 135.801 11.0998 135.501 10.5998C135.301 10.0998 135.001 9.5998 134.601 9.1998C134.201 8.7998 133.801 8.4998 133.301 8.2998C132.801 8.0998 132.301 7.9998 131.701 7.9998C131.101 7.9998 130.601 8.0998 130.101 8.2998C129.601 8.4998 129.101 8.7998 128.801 9.1998C128.401 9.5998 128.101 10.0998 127.901 10.5998C127.701 11.0998 127.601 11.5998 127.601 12.1998V25.4998H125.301V12.1998C125.301 11.6998 125.301 11.0998 125.001 10.5998C124.801 10.0998 124.501 9.5998 124.101 9.1998C123.701 8.7998 123.301 8.4998 122.801 8.2998C122.301 8.0998 121.801 7.9998 121.201 7.9998C120.601 7.9998 120.101 8.0998 119.601 8.2998C119.101 8.4998 118.601 8.7998 118.301 9.1998C117.901 9.5998 117.601 10.0998 117.401 10.5998C117.201 11.0998 117.101 11.5998 117.101 12.1998V25.4998H114.801V12.1998C114.801 10.7998 115.201 9.4998 116.101 8.3998C116.901 7.2998 118.101 6.4998 119.401 6.0998C120.701 5.6998 122.101 5.6998 123.401 6.0998C124.701 6.4998 125.801 7.3998 126.601 8.4998C127.401 7.3998 128.501 6.4998 129.801 6.0998C131.101 5.6998 132.501 5.6998 133.801 6.0998C135.101 6.4998 136.201 7.2998 137.001 8.3998C137.801 9.4998 138.201 10.7998 138.201 12.1998V25.4998H135.901H135.801Z" fill="white"/>
<path d="M164.8 30H145.1V34H164.8V30Z" fill="white"/>
<path d="M155 5.59961C149.2 5.59961 144.5 10.1996 144.5 15.7996C144.5 21.3996 149.2 25.9996 155 25.9996C160.8 25.9996 165.5 21.3996 165.5 15.7996C165.5 10.1996 160.8 5.59961 155 5.59961ZM154.9 22.0996C151.5 22.0996 148.7 19.2996 148.7 15.7996C148.7 12.2996 151.5 9.49961 154.9 9.49961C158.3 9.49961 161.1 12.2996 161.1 15.7996C161.1 19.2996 158.3 22.0996 154.9 22.0996Z" fill="white"/>
<path d="M186.1 25.2996C184.6 25.2996 183.1 25.2996 181.6 25.2996C181.6 21.8996 181.6 18.4996 181.6 15.1996C181.6 13.4996 181.6 11.5996 180.3 10.3996C179.6 9.79964 178.7 9.39964 177.7 9.39964C176.3 9.39964 174.9 9.79964 174 10.7996C172.9 12.0996 172.9 13.8996 172.9 15.5996C172.9 18.7996 172.9 22.0996 172.9 25.2996C172 25.2996 171 25.2996 170.1 25.2996C169.2 25.2996 169.2 25.2996 168.7 25.2996C168.2 25.2996 168.6 25.2996 168.5 25.2996C168.4 25.2996 168.5 25.2996 168.4 25.2996C168.4 25.1996 168.4 25.0996 168.4 24.8996V24.1996C168.4 23.2996 168.4 22.2996 168.4 21.3996V18.5996C168.4 17.6996 168.4 16.6996 168.4 15.7996V12.9996C168.4 12.0996 168.4 11.0996 168.4 10.1996V7.39964C168.4 7.29964 168.4 5.89964 168.4 5.89964H172.9C172.9 6.89964 172.9 7.89964 172.9 8.89964C174.5 6.29964 177.8 4.99964 180.8 5.59964C182.4 5.89964 183.9 6.89964 184.8 8.29964C186 10.1996 186.1 12.4996 186.1 14.7996C186.1 18.3996 186.1 21.9996 186.1 25.4996V25.2996Z" fill="white"/>
<path d="M208 15.8002C208 13.2002 207.3 10.7002 206 8.8002C204.3 6.5002 201.6 5.3002 198.9 5.2002C198.4 5.2002 197.9 5.2002 197.4 5.2002C194.9 5.5002 192.5 6.9002 191 8.9002C190.8 9.2002 190.6 9.4002 190.5 9.7002C189.5 11.4002 189 13.3002 189 15.3002C189 17.5002 189.5 19.6002 190.8 21.4002C192 23.2002 193.8 24.5002 195.9 25.1002C197.6 25.6002 199.4 25.7002 201.1 25.4002C202.4 25.2002 203.7 24.7002 204.8 24.0002C205.7 23.4002 206.5 22.7002 207.2 21.9002L204.6 19.6002C203 21.1002 201.5 21.9002 199.3 21.9002C197.1 21.9002 198.6 21.9002 198.2 21.9002C195.8 21.5002 194 19.8002 193.6 17.0002H208.1C208.1 16.6002 208.1 16.1002 208.1 15.7002L208 15.8002ZM193.4 14.1002C193.6 12.2002 194.6 10.3002 196.4 9.4002C198.5 8.3002 201.2 9.0002 202.5 11.0002C203.1 11.9002 203.4 13.0002 203.5 14.0002H193.4V14.1002Z" fill="white"/>
</g>
</svg>
