<svg width="208" height="34" viewBox="0 0 208 34" fill="none" xmlns="http://www.w3.org/2000/svg">
<g clip-path="url(#clip0_2076_7597)">
<mask id="mask0_2076_7597" style="mask-type:luminance" maskUnits="userSpaceOnUse" x="0" y="0" width="208" height="34">
<path d="M208 0H0V34H208V0Z" fill="white"/>
</mask>
<g mask="url(#mask0_2076_7597)">
<path d="M20.7 15.6C20.7 17.7 20 19.8 18.8 21.6C17.6 23.4 15.8 24.7 13.8 25.4C11.8 26.1 9.6 26.2 7.5 25.6C5.4 25 3.6 23.8 2.3 22.1V34.1H0V15.6C0 12.9 1.1 10.2 3 8.30005C4.9 6.40005 7.6 5.30005 10.3 5.30005C13 5.30005 15.7 6.40005 17.6 8.30005C19.5 10.2 20.7 12.9 20.7 15.6ZM2.2 15.7C2.2 17.3 2.8 18.7 3.7 20.1C4.6 21.4 5.8 22.4 7.3 23.1C8.8 23.7 10.4 23.9 11.9 23.6C13.5 23.3 14.9 22.5 16 21.4C17.1 20.3 17.9 18.8 18.2 17.3C18.5 15.7 18.4 14.1 17.7 12.7C17.1 11.2 16.1 10 14.7 9.10005C13.4 8.20005 11.8 7.70005 10.2 7.70005C9.1 7.70005 8.1 7.90005 7.1 8.30005C6.1 8.70005 5.2 9.30005 4.5 10C3.8 10.7 3.2 11.6 2.8 12.6C2.4 13.6 2.2 14.6 2.2 15.7Z" fill="white"/>
<path d="M24.9004 0H27.2004V17.5C27.2004 21.4 27.6004 23.5 31.5004 23.5V25.8C26.3004 25.8 24.9004 22.6 24.9004 17.4V0Z" fill="white"/>
<path d="M53.6996 25.4999H51.3996V21.6999C49.8996 23.5999 47.7996 24.8999 45.3996 25.2999C42.9996 25.7999 40.5996 25.2999 38.4996 24.1999C36.3996 22.9999 34.7996 21.1999 33.8996 18.8999C32.9996 16.6999 32.9996 14.1999 33.8996 11.8999C34.6996 9.59994 36.2996 7.69994 38.2996 6.49994C40.3996 5.29994 42.7996 4.79994 45.1996 5.19994C47.5996 5.59994 49.6996 6.79994 51.2996 8.69994C52.8996 10.4999 53.6996 12.8999 53.6996 15.1999V25.4999ZM35.5996 15.3999C35.5996 16.9999 36.0996 18.4999 36.8996 19.7999C37.7996 21.0999 38.9996 22.0999 40.3996 22.6999C41.7996 23.2999 43.3996 23.4999 44.9996 23.0999C46.4996 22.7999 47.8996 21.9999 48.9996 20.8999C50.0996 19.7999 50.8996 18.3999 51.1996 16.8999C51.4996 15.3999 51.2996 13.7999 50.7996 12.2999C50.1996 10.8999 49.1996 9.59995 47.8996 8.79995C46.5996 7.89995 45.0996 7.49994 43.4996 7.49994C41.8996 7.49994 39.3996 8.29994 37.8996 9.79994C36.3996 11.2999 35.5996 13.2999 35.5996 15.3999Z" fill="white"/>
<path d="M58.4996 8.2H55.5996V5.9H58.4996V0H60.7996V5.8H63.6996V8.1H60.7996V19.6C60.7996 20.5 61.1996 21.4 61.7996 22.1C62.4996 22.8 63.2996 23.1 64.2996 23.1H65.3996V25.4H64.2996C62.7996 25.4 61.2996 24.8 60.1996 23.7C59.0996 22.6 58.4996 21.1 58.4996 19.6V8.1V8.2Z" fill="white"/>
<path d="M70.2008 5.8C70.2008 4.3 70.8008 2.8 71.9008 1.7C73.0008 0.6 74.5008 0 76.0008 0H77.1008V2.3H76.0008C75.1008 2.3 74.2008 2.7 73.5008 3.3C72.8008 4 72.5008 4.8 72.5008 5.8H77.1008V8.1H72.5008V25.4H70.2008V8.2H67.3008V5.9H70.2008V5.8Z" fill="white"/>
<path d="M78.3295 15.6001C78.3695 13.0601 79.3695 10.5301 81.0895 8.64005C81.7795 7.88005 82.5795 7.22005 83.4695 6.71005C87.1995 4.58005 92.2795 5.13005 95.4595 8.02005C98.6395 10.9101 99.6795 15.9101 97.9195 19.8301C96.1595 23.7501 91.7195 26.2801 87.4495 25.8201C83.6895 25.4101 80.3195 22.7101 78.9595 19.2001C78.5095 18.0401 78.3095 16.8201 78.3295 15.6001ZM96.6995 15.6001C96.6895 14.2901 96.3395 12.9801 95.7195 11.8201C95.0495 10.5701 94.0695 9.48005 92.8695 8.72005C90.2395 7.04005 86.6095 7.10005 84.0295 8.86005C80.7795 11.0801 79.5895 15.6401 81.4695 19.1001C82.3395 20.7101 83.7395 22.0501 85.4195 22.7901C87.7695 23.8401 90.6195 23.6901 92.8395 22.3801C95.0595 21.0701 96.5595 18.6201 96.6895 16.0501C96.6895 15.9001 96.6995 15.7501 96.6895 15.6001H96.6995Z" fill="white"/>
<path d="M102.1 22.79V20.26C102.09 19.42 102.09 18.57 102.08 17.73V17.2C102.08 15.27 102.08 13.29 102.79 11.51C103.47 9.83002 104.74 8.44002 106.26 7.44002C107.78 6.44002 109.58 5.82002 111.4 5.77002C111.73 5.77002 112.07 5.77002 112.4 5.80002C112.4 6.57002 112.4 7.33002 112.4 8.10002C110.83 7.98002 109.21 8.28002 107.83 9.04002C106.45 9.80002 105.33 11.06 104.81 12.55C104.38 13.79 104.38 15.14 104.38 16.46C104.38 19.47 104.4 22.49 104.41 25.5H102.11V22.79H102.1Z" fill="white"/>
<path d="M135.801 25.5V12.2C135.801 11.7 135.801 11.1 135.501 10.6C135.301 10.1 135.001 9.60005 134.601 9.20005C134.201 8.80005 133.801 8.50005 133.301 8.30005C132.801 8.10005 132.301 8.00005 131.701 8.00005C131.101 8.00005 130.601 8.10005 130.101 8.30005C129.601 8.50005 129.101 8.80005 128.801 9.20005C128.401 9.60005 128.101 10.1 127.901 10.6C127.701 11.1 127.601 11.6 127.601 12.2V25.5H125.301V13.76C125.301 12.53 125.421 11.3 124.821 10.17C124.391 9.36005 123.661 8.64005 122.801 8.30005C122.301 8.10005 121.801 8.00005 121.201 8.00005C120.601 8.00005 120.101 8.10005 119.601 8.30005C119.101 8.50005 118.601 8.80005 118.301 9.20005C117.901 9.60005 117.601 10.1 117.401 10.6C117.201 11.1 117.101 11.6 117.101 12.2V25.5H114.801V12.2C114.801 10.8 115.201 9.50005 116.101 8.40005C116.901 7.30005 118.101 6.50005 119.401 6.10005C120.701 5.70005 122.101 5.70005 123.401 6.10005C124.701 6.50005 125.801 7.40005 126.601 8.50005C127.401 7.40005 128.501 6.50005 129.801 6.10005C131.101 5.70005 132.501 5.70005 133.801 6.10005C135.101 6.50005 136.201 7.30005 137.001 8.40005C137.801 9.50005 138.201 10.8 138.201 12.2V25.5H135.801Z" fill="white"/>
<path d="M164.8 30H145.1V34H164.8V30Z" fill="white"/>
<path d="M155 5.59998C149.2 5.59998 144.5 10.2 144.5 15.8C144.5 21.4 149.2 26 155 26C160.8 26 165.5 21.4 165.5 15.8C165.5 10.2 160.8 5.59998 155 5.59998ZM154.9 22.1C151.5 22.1 148.7 19.3 148.7 15.8C148.7 12.3 151.5 9.49998 154.9 9.49998C158.3 9.49998 161.1 12.3 161.1 15.8C161.1 19.3 158.3 22.1 154.9 22.1Z" fill="white"/>
<path d="M186.1 25.3C184.6 25.3 183.1 25.3 181.6 25.3C181.6 21.9 181.6 18.5 181.6 15.2C181.6 13.5 181.6 11.6 180.3 10.4C179.6 9.8 178.7 9.4 177.7 9.4C176.3 9.4 174.9 9.8 174 10.8C172.9 12.1 172.9 13.9 172.9 15.6C172.9 18.8 172.9 22.1 172.9 25.3C172 25.3 171 25.3 170.1 25.3C169.2 25.3 169.2 25.3 168.7 25.3C168.2 25.3 168.6 25.3 168.5 25.3C168.4 25.3 168.5 25.3 168.4 25.3C168.4 25.2 168.4 25.1 168.4 24.9V24.2C168.4 23.3 168.4 22.3 168.4 21.4V18.6C168.4 17.7 168.4 16.7 168.4 15.8V13C168.4 12.1 168.4 11.1 168.4 10.2V7.4C168.4 7.3 168.4 5.9 168.4 5.9H172.9C172.9 6.9 172.9 7.9 172.9 8.9C174.5 6.3 177.8 5 180.8 5.6C182.4 5.9 183.9 6.9 184.8 8.3C186 10.2 186.1 12.5 186.1 14.8C186.1 18.4 186.1 22 186.1 25.5V25.3Z" fill="white"/>
<path d="M208 15.8C208 13.2 207.3 10.7 206 8.79995C204.3 6.49995 201.6 5.29995 198.9 5.19995C198.4 5.19995 197.9 5.19995 197.4 5.19995C194.9 5.49995 192.5 6.89995 191 8.89995C190.8 9.19995 190.6 9.39995 190.5 9.69995C189.5 11.4 189 13.3 189 15.3C189 17.5 189.5 19.6 190.8 21.4C192 23.2 193.8 24.5 195.9 25.1C197.6 25.6 199.4 25.7 201.1 25.4C202.4 25.2 203.7 24.7 204.8 24C205.7 23.4 206.5 22.7 207.2 21.9L204.6 19.6C203 21.1 201.5 21.9 199.3 21.9C197.1 21.9 198.6 21.9 198.2 21.9C195.8 21.5 194 19.8 193.6 17H208.1C208.1 16.6 208.1 16.1 208.1 15.7L208 15.8ZM193.4 14.1C193.6 12.2 194.6 10.3 196.4 9.39995C198.5 8.29995 201.2 8.99995 202.5 11C203.1 11.9 203.4 13 203.5 14H193.4V14.1Z" fill="white"/>
</g>
</g>
<defs>
<clipPath id="clip0_2076_7597">
<rect width="208" height="34" fill="white"/>
</clipPath>
</defs>
</svg>
