<svg width="208" height="34" viewBox="0 0 208 34" fill="none" xmlns="http://www.w3.org/2000/svg">
<g clip-path="url(#clip0_2005_466)">
<mask id="mask0_2005_466" style="mask-type:luminance" maskUnits="userSpaceOnUse" x="0" y="0" width="208" height="34">
<path d="M208 0H0V34H208V0Z" fill="white"/>
</mask>
<g mask="url(#mask0_2005_466)">
<path d="M20.7 15.6C20.7 17.7 20 19.8 18.8 21.6C17.6 23.4 15.8 24.7 13.8 25.4C11.8 26.1 9.6 26.2 7.5 25.6C5.4 25 3.6 23.8 2.3 22.1V34.1H0V15.6C0 12.9 1.1 10.2 3 8.30005C4.9 6.40005 7.6 5.30005 10.3 5.30005C13 5.30005 15.7 6.40005 17.6 8.30005C19.5 10.2 20.7 12.9 20.7 15.6ZM2.2 15.7C2.2 17.3 2.8 18.7 3.7 20.1C4.6 21.4 5.8 22.4 7.3 23.1C8.8 23.7 10.4 23.9 11.9 23.6C13.5 23.3 14.9 22.5 16 21.4C17.1 20.3 17.9 18.8 18.2 17.3C18.5 15.7 18.4 14.1 17.7 12.7C17.1 11.2 16.1 10 14.7 9.10005C13.4 8.20005 11.8 7.70005 10.2 7.70005C9.1 7.70005 8.1 7.90005 7.1 8.30005C6.1 8.70005 5.2 9.30005 4.5 10C3.8 10.7 3.2 11.6 2.8 12.6C2.4 13.6 2.2 14.6 2.2 15.7Z" fill="#47102A"/>
<path d="M24.9004 0H27.2004V17.5C27.2004 21.4 27.6004 23.5 31.5004 23.5V25.8C26.3004 25.8 24.9004 22.6 24.9004 17.4V0Z" fill="#47102A"/>
<path d="M53.6996 25.4999H51.3996V21.6999C49.8996 23.5999 47.7996 24.8999 45.3996 25.2999C42.9996 25.7999 40.5996 25.2999 38.4996 24.1999C36.3996 22.9999 34.7996 21.1999 33.8996 18.8999C32.9996 16.6999 32.9996 14.1999 33.8996 11.8999C34.6996 9.59994 36.2996 7.69994 38.2996 6.49994C40.3996 5.29994 42.7996 4.79994 45.1996 5.19994C47.5996 5.59994 49.6996 6.79994 51.2996 8.69994C52.8996 10.4999 53.6996 12.8999 53.6996 15.1999V25.4999ZM35.5996 15.3999C35.5996 16.9999 36.0996 18.4999 36.8996 19.7999C37.7996 21.0999 38.9996 22.0999 40.3996 22.6999C41.7996 23.2999 43.3996 23.4999 44.9996 23.0999C46.4996 22.7999 47.8996 21.9999 48.9996 20.8999C50.0996 19.7999 50.8996 18.3999 51.1996 16.8999C51.4996 15.3999 51.2996 13.7999 50.7996 12.2999C50.1996 10.8999 49.1996 9.59995 47.8996 8.79995C46.5996 7.89995 45.0996 7.49994 43.4996 7.49994C41.8996 7.49994 39.3996 8.29994 37.8996 9.79994C36.3996 11.2999 35.5996 13.2999 35.5996 15.3999Z" fill="#47102A"/>
<path d="M58.4996 8.2H55.5996V5.9H58.4996V0H60.7996V5.8H63.6996V8.1H60.7996V19.6C60.7996 20.5 61.1996 21.4 61.7996 22.1C62.4996 22.8 63.2996 23.1 64.2996 23.1H65.3996V25.4H64.2996C62.7996 25.4 61.2996 24.8 60.1996 23.7C59.0996 22.6 58.4996 21.1 58.4996 19.6V8.1V8.2Z" fill="#47102A"/>
<path d="M70.2008 5.8C70.2008 4.3 70.8008 2.8 71.9008 1.7C73.0008 0.6 74.5008 0 76.0008 0H77.1008V2.3H76.0008C75.1008 2.3 74.2008 2.7 73.5008 3.3C72.8008 4 72.5008 4.8 72.5008 5.8H77.1008V8.1H72.5008V25.4H70.2008V8.2H67.3008V5.9H70.2008V5.8Z" fill="#47102A"/>
<path d="M78.3295 15.6001C78.3695 13.0601 79.3695 10.5301 81.0895 8.64005C81.7795 7.88005 82.5795 7.22005 83.4695 6.71005C87.1995 4.58005 92.2795 5.13005 95.4595 8.02005C98.6395 10.9101 99.6795 15.9101 97.9195 19.8301C96.1595 23.7501 91.7195 26.2801 87.4495 25.8201C83.6895 25.4101 80.3195 22.7101 78.9595 19.2001C78.5095 18.0401 78.3095 16.8201 78.3295 15.6001ZM96.6995 15.6001C96.6895 14.2901 96.3395 12.9801 95.7195 11.8201C95.0495 10.5701 94.0695 9.48005 92.8695 8.72005C90.2395 7.04005 86.6095 7.10005 84.0295 8.86005C80.7795 11.0801 79.5895 15.6401 81.4695 19.1001C82.3395 20.7101 83.7395 22.0501 85.4195 22.7901C87.7695 23.8401 90.6195 23.6901 92.8395 22.3801C95.0595 21.0701 96.5595 18.6201 96.6895 16.0501C96.6895 15.9001 96.6995 15.7501 96.6895 15.6001H96.6995Z" fill="#47102A"/>
<path d="M102.1 22.79V20.26C102.09 19.42 102.09 18.57 102.08 17.73V17.2C102.08 15.27 102.08 13.29 102.79 11.51C103.47 9.83002 104.74 8.44002 106.26 7.44002C107.78 6.44002 109.58 5.82002 111.4 5.77002C111.73 5.77002 112.07 5.77002 112.4 5.80002C112.4 6.57002 112.4 7.33002 112.4 8.10002C110.83 7.98002 109.21 8.28002 107.83 9.04002C106.45 9.80002 105.33 11.06 104.81 12.55C104.38 13.79 104.38 15.14 104.38 16.46C104.38 19.47 104.4 22.49 104.41 25.5H102.11V22.79H102.1Z" fill="#47102A"/>
<path d="M135.801 25.5V12.2C135.801 11.7 135.801 11.1 135.501 10.6C135.301 10.1 135.001 9.60005 134.601 9.20005C134.201 8.80005 133.801 8.50005 133.301 8.30005C132.801 8.10005 132.301 8.00005 131.701 8.00005C131.101 8.00005 130.601 8.10005 130.101 8.30005C129.601 8.50005 129.101 8.80005 128.801 9.20005C128.401 9.60005 128.101 10.1 127.901 10.6C127.701 11.1 127.601 11.6 127.601 12.2V25.5H125.301V13.76C125.301 12.53 125.421 11.3 124.821 10.17C124.391 9.36005 123.661 8.64005 122.801 8.30005C122.301 8.10005 121.801 8.00005 121.201 8.00005C120.601 8.00005 120.101 8.10005 119.601 8.30005C119.101 8.50005 118.601 8.80005 118.301 9.20005C117.901 9.60005 117.601 10.1 117.401 10.6C117.201 11.1 117.101 11.6 117.101 12.2V25.5H114.801V12.2C114.801 10.8 115.201 9.50005 116.101 8.40005C116.901 7.30005 118.101 6.50005 119.401 6.10005C120.701 5.70005 122.101 5.70005 123.401 6.10005C124.701 6.50005 125.801 7.40005 126.601 8.50005C127.401 7.40005 128.501 6.50005 129.801 6.10005C131.101 5.70005 132.501 5.70005 133.801 6.10005C135.101 6.50005 136.201 7.30005 137.001 8.40005C137.801 9.50005 138.201 10.8 138.201 12.2V25.5H135.801Z" fill="#47102A"/>
<path d="M164.8 30H145.1V34H164.8V30Z" fill="url(#paint0_linear_2005_466)"/>
<mask id="mask1_2005_466" style="mask-type:alpha" maskUnits="userSpaceOnUse" x="144" y="5" width="65" height="21">
<path d="M155 5.59961C149.2 5.59961 144.5 10.1996 144.5 15.7996C144.5 21.3996 149.2 25.9996 155 25.9996C160.8 25.9996 165.5 21.3996 165.5 15.7996C165.5 10.1996 160.8 5.59961 155 5.59961ZM154.9 22.0996C151.5 22.0996 148.7 19.2996 148.7 15.7996C148.7 12.2996 151.5 9.49961 154.9 9.49961C158.3 9.49961 161.1 12.2996 161.1 15.7996C161.1 19.2996 158.3 22.0996 154.9 22.0996Z" fill="white"/>
<path d="M186.098 25.2996C184.598 25.2996 183.098 25.2996 181.598 25.2996C181.598 21.8996 181.598 18.4996 181.598 15.1996C181.598 13.4996 181.598 11.5996 180.298 10.3996C179.598 9.79964 178.698 9.39964 177.698 9.39964C176.298 9.39964 174.898 9.79964 173.998 10.7996C172.898 12.0996 172.898 13.8996 172.898 15.5996C172.898 18.7996 172.898 22.0996 172.898 25.2996C171.998 25.2996 170.998 25.2996 170.098 25.2996C169.198 25.2996 169.198 25.2996 168.698 25.2996C168.198 25.2996 168.598 25.2996 168.498 25.2996C168.398 25.2996 168.498 25.2996 168.398 25.2996C168.398 25.1996 168.398 25.0996 168.398 24.8996V24.1996C168.398 23.2996 168.398 22.2996 168.398 21.3996V18.5996C168.398 17.6996 168.398 16.6996 168.398 15.7996V12.9996C168.398 12.0996 168.398 11.0996 168.398 10.1996V7.39964C168.398 7.29964 168.398 5.89964 168.398 5.89964H172.898C172.898 6.89964 172.898 7.89964 172.898 8.89964C174.498 6.29964 177.798 4.99964 180.798 5.59964C182.398 5.89964 183.898 6.89964 184.798 8.29964C185.998 10.1996 186.098 12.4996 186.098 14.7996C186.098 18.3996 186.098 21.9996 186.098 25.4996V25.2996Z" fill="white"/>
<path d="M208 15.7992C208 13.1992 207.3 10.6992 206 8.79922C204.3 6.49922 201.6 5.29922 198.9 5.19922C198.4 5.19922 197.9 5.19922 197.4 5.19922C194.9 5.49922 192.5 6.89922 191 8.89922C190.8 9.19922 190.6 9.39922 190.5 9.69922C189.5 11.3992 189 13.2992 189 15.2992C189 17.4992 189.5 19.5992 190.8 21.3992C192 23.1992 193.8 24.4992 195.9 25.0992C197.6 25.5992 199.4 25.6992 201.1 25.3992C202.4 25.1992 203.7 24.6992 204.8 23.9992C205.7 23.3992 206.5 22.6992 207.2 21.8992L204.6 19.5992C203 21.0992 201.5 21.8992 199.3 21.8992C197.1 21.8992 198.6 21.8992 198.2 21.8992C195.8 21.4992 194 19.7992 193.6 16.9992H208.1C208.1 16.5992 208.1 16.0992 208.1 15.6992L208 15.7992ZM193.4 14.0992C193.6 12.1992 194.6 10.2992 196.4 9.39922C198.5 8.29922 201.2 8.99922 202.5 10.9992C203.1 11.8992 203.4 12.9992 203.5 13.9992H193.4V14.0992Z" fill="white"/>
</mask>
<g mask="url(#mask1_2005_466)">
<rect width="63.6" height="20.8004" transform="translate(144.5 5.19922)" fill="url(#paint1_linear_2005_466)"/>
</g>
</g>
</g>
<defs>
<linearGradient id="paint0_linear_2005_466" x1="145.1" y1="31.9999" x2="164.8" y2="31.9999" gradientUnits="userSpaceOnUse">
<stop stop-color="#EA3461"/>
<stop offset="1" stop-color="#AA2C69"/>
</linearGradient>
<linearGradient id="paint1_linear_2005_466" x1="0" y1="10.3998" x2="63.6" y2="10.3998" gradientUnits="userSpaceOnUse">
<stop stop-color="#EA3461"/>
<stop offset="1" stop-color="#AA2C69"/>
</linearGradient>
<clipPath id="clip0_2005_466">
<rect width="208" height="34" fill="white"/>
</clipPath>
</defs>
</svg>
