<svg width="71" height="70" viewBox="0 0 71 70" fill="none" xmlns="http://www.w3.org/2000/svg">
<path d="M34.4204 12.2022C38.7531 11.8183 42.5812 15.0322 42.9541 19.3648C43.009 19.9462 43.009 20.5275 42.9651 21.1089C44.1278 21.7231 45.2137 22.469 46.2009 23.3355C46.4751 21.9425 46.5848 20.5165 46.4532 19.0577C45.9047 12.7945 40.3765 8.15476 34.1133 8.7032C30.4717 9.0213 27.203 11.0725 25.3273 14.2095L24.5595 15.4929L23.5833 14.3631C21.1921 11.599 17.6163 10.1511 13.9747 10.4692C7.71154 11.0176 3.07176 16.5459 3.62019 22.809C4.11379 28.5018 8.06254 33.2074 11.4628 36.6735C14.227 39.4925 17.3202 41.9934 20.0185 43.9568C19.3933 42.2456 18.9106 40.4248 18.6803 38.5053C17.0898 37.2 15.4664 35.7631 13.9637 34.2275C10.5854 30.7833 7.49216 26.8565 7.10826 22.5129C6.72435 18.1802 9.93819 14.3521 14.2709 13.9792C16.7937 13.7598 19.2616 14.758 20.9179 16.6775L23.4846 19.65C23.8575 20.0778 24.406 20.2972 24.9654 20.2533C25.5248 20.2094 26.0293 19.8913 26.3145 19.4087L28.3328 16.0413C29.6271 13.8695 31.8867 12.4545 34.4095 12.2351L34.4204 12.2022ZM49.3928 32.4505C51.0491 30.542 53.517 29.5329 56.0398 29.7522C60.3725 30.1361 63.5864 33.9533 63.2024 38.2859C62.8185 42.6295 59.7363 46.5564 56.347 50.0005C52.5628 53.8615 48.0656 57.1522 45.0163 59.0827C44.5556 59.3679 43.9633 59.5214 43.2942 59.4666C42.6251 59.4117 42.0657 59.1595 41.6598 58.7975C38.9944 56.3624 35.1334 52.3479 32.0731 47.8836C29.3419 43.9019 26.9836 39.5035 27.3566 35.1598C27.7405 30.8272 31.5576 27.6133 35.8903 27.9972C38.4131 28.2166 40.6726 29.6316 41.9669 31.8034L43.9852 35.1708C44.2704 35.6534 44.7749 35.9715 45.3343 36.0154C45.8938 36.0593 46.4422 35.8399 46.8151 35.4121L49.3818 32.4396L49.3928 32.4505ZM56.347 26.2642C52.7053 25.9461 49.1295 27.394 46.7383 30.1581L45.7621 31.2879L44.9943 30.0045C43.1187 26.8675 39.85 24.8163 36.2084 24.4982C29.9452 23.9498 24.4169 28.5895 23.8685 34.8527C23.3749 40.5455 26.4352 45.8653 29.1884 49.8689C32.4461 54.6074 36.4935 58.8304 39.3015 61.3861C41.3308 63.2398 44.5775 63.525 46.9029 62.0552C50.1167 60.015 54.8333 56.5708 58.8588 52.4685C62.2591 49.0024 66.2079 44.2968 66.7015 38.604C67.2499 32.3409 62.6101 26.8126 56.347 26.2642Z" fill="#160E11"/>
</svg>
